<?xml version="1.0" standalone="no"?><!DOCTYPE svg PUBLIC "-//W3C//DTD SVG 1.1//EN" "http://www.w3.org/Graphics/SVG/1.1/DTD/svg11.dtd"><svg t="1717484445655" class="icon" viewBox="0 0 1024 1024" version="1.1" xmlns="http://www.w3.org/2000/svg" p-id="19047" xmlns:xlink="http://www.w3.org/1999/xlink" width="200" height="200"><path d="M512 165.76a31.36 31.36 0 0 0-10.88-10.88L311.04 44.16a32 32 0 0 0-32 0L89.6 153.6a28.8 28.8 0 0 0-14.72 24.96V400.64a32 32 0 0 0 16 27.52l192 109.44a32 32 0 0 0 32 0l192-109.44a32 32 0 0 0 16-27.52V179.84a31.36 31.36 0 0 0-10.88-14.08zM295.04 108.8l128 72.96-128 74.24-128-72.32 128-74.88z m0 364.16L137.6 384V236.8L279.04 320a32 32 0 0 0 13.44 0h4.48a32 32 0 0 0 14.08 0l141.44-83.2V384l-157.44 88.96z m682.88 286.72L832 512a64 64 0 0 0-106.24 0l-141.44 247.68c-11.093333 19.413333-13.909333 42.496-7.68 64a206.72 206.72 0 0 0 204.16 115.2c85.333333 7.637333 166.570667-38.186667 204.16-115.2a81.92 81.92 0 0 0-7.04-64z m-197.12 117.76A147.2 147.2 0 0 1 640 806.4a19.2 19.2 0 0 1 0-14.72l138.88-248.32 107.52 186.24 35.84 64a18.56 18.56 0 0 1 0 14.72 147.2 147.2 0 0 1-141.44 69.12z m-134.4-674.56h167.04V413.44a7.04 7.04 0 0 0 12.16 5.12l119.68-123.52a7.04 7.04 0 0 0-5.12-12.16h-64V170.88a32 32 0 0 0-32-32H646.4a32 32 0 1 0 0 64zM452.48 832h-166.4v-208a7.04 7.04 0 0 0-12.16-5.12L154.24 739.84a7.04 7.04 0 0 0 5.12 12.16h64v114.56A32 32 0 0 0 256 896h196.48a32 32 0 1 0 0-64z" fill="#2c2c2c" p-id="19048"></path></svg>