<?xml version="1.0" standalone="no"?><!DOCTYPE svg PUBLIC "-//W3C//DTD SVG 1.1//EN" "http://www.w3.org/Graphics/SVG/1.1/DTD/svg11.dtd"><svg t="1717484766467" class="icon" viewBox="0 0 1024 1024" version="1.1" xmlns="http://www.w3.org/2000/svg" p-id="23092" xmlns:xlink="http://www.w3.org/1999/xlink" width="200" height="200"><path d="M810.7 216.8c11.8 0 21.3 9.6 21.3 21.3v426.7c0 11.8-9.6 21.3-21.3 21.3H213.3c-11.8 0-21.3-9.6-21.3-21.3V238.2c0-11.8 9.6-21.3 21.3-21.3h597.4v-0.1z m-597.4-64c-47.1 0-85.3 38.2-85.3 85.3v426.7c0 47.1 38.2 85.3 85.3 85.3h597.3c47.1 0 85.3-38.2 85.3-85.3V238.2c0-47.1-38.2-85.3-85.3-85.3l-597.3-0.1z m53.4 686.4c0-17.7 14.3-32 32-32h426.7c17.7 0 32 14.3 32 32s-14.3 32-32 32H298.7c-17.7 0-32-14.4-32-32z" fill="#2c2c2c" p-id="23093"></path><path d="M457 454.5l-92.6 96c-12.3 12.7-32.6 13.1-45.3 0.8-12.7-12.3-13.1-32.6-0.8-45.3l109.2-113.1c15.5-16.1 41.2-16.6 57.3-1l0.5 0.5L576 483l84.1-84.1c12-12.9 32.3-13.6 45.2-1.6 12.9 12 13.6 32.3 1.6 45.2-0.5 0.6-1 1.1-1.6 1.6L604.7 544.9c-15.8 15.8-41.5 15.8-57.3 0L457 454.5z" fill="#2c2c2c" p-id="23094"></path></svg>