<?xml version="1.0" standalone="no"?><!DOCTYPE svg PUBLIC "-//W3C//DTD SVG 1.1//EN" "http://www.w3.org/Graphics/SVG/1.1/DTD/svg11.dtd"><svg t="1717492221705" class="icon" viewBox="0 0 1024 1024" version="1.1" xmlns="http://www.w3.org/2000/svg" p-id="35045" xmlns:xlink="http://www.w3.org/1999/xlink" width="200" height="200"><path d="M512 0C229.668571 0 0 229.668571 0 512S229.668571 1024 512 1024 1024 794.331429 1024 512 794.331429 0 512 0z m0 77.355886c239.674514 0 434.644114 194.9696 434.644114 434.644114S751.674514 946.644114 512 946.644114 77.355886 751.674514 77.355886 512 272.325486 77.355886 512 77.355886zM534.528 263.314286a241.956571 241.956571 0 1 0 177.444571 406.381714l-59.157942-54.827886-5.149258 5.354057a161.294629 161.294629 0 1 1 5.149258-224.607085l59.157942-54.827886-5.792914-6.026971A241.312914 241.312914 0 0 0 534.528 263.314286z" fill="#515151" p-id="35046"></path></svg>