<?xml version="1.0" standalone="no"?><!DOCTYPE svg PUBLIC "-//W3C//DTD SVG 1.1//EN" "http://www.w3.org/Graphics/SVG/1.1/DTD/svg11.dtd"><svg t="1717484209390" class="icon" viewBox="0 0 1024 1024" version="1.1" xmlns="http://www.w3.org/2000/svg" p-id="14467" xmlns:xlink="http://www.w3.org/1999/xlink" width="200" height="200"><path d="M956.416 348.864a328.512 328.512 0 0 1-245.12 363.2 328.576 328.576 0 0 1-643.712-36.928 328.512 328.512 0 0 1 245.12-363.2 328.576 328.576 0 0 1 643.712 36.928zM534.336 639.808a263.04 263.04 0 0 0 121.92 16.96c1.28-12.736 1.664-25.728 1.024-38.848l-122.88 21.888z m-75.136-45.12l189.056-33.664a263.488 263.488 0 0 0-14.272-39.808l-211.072 35.648c10.88 13.824 23.04 26.432 36.288 37.76zM390.528 503.936l211.456-35.712a265.28 265.28 0 0 0-34.176-36.288l-192.256 30.336c3.84 14.464 8.96 28.416 14.976 41.6z m-23.808-98.56l126.08-19.84a263.04 263.04 0 0 0-125.056-18.304 263.68 263.68 0 0 0-1.024 38.144z m351.744 180.48c2.56 18.944 3.52 37.76 2.88 56.32a264.576 264.576 0 0 0-126.336-510.72A264.448 264.448 0 0 0 382.72 302.144a328.512 328.512 0 0 1 335.744 283.712zM305.536 438.144a330.624 330.624 0 0 1-2.88-56.32 264.576 264.576 0 0 0 126.336 510.72 264.448 264.448 0 0 0 212.288-170.688 328.512 328.512 0 0 1-335.744-283.712z" fill="#000000" fill-opacity=".9" p-id="14468"></path></svg>