<?xml version="1.0" standalone="no"?><!DOCTYPE svg PUBLIC "-//W3C//DTD SVG 1.1//EN" "http://www.w3.org/Graphics/SVG/1.1/DTD/svg11.dtd"><svg t="1717492401461" class="icon" viewBox="0 0 1024 1024" version="1.1" xmlns="http://www.w3.org/2000/svg" p-id="36230" xmlns:xlink="http://www.w3.org/1999/xlink" width="200" height="200"><path d="M181.76 155.47733333v713.216c0 14.848 12.288 27.136 27.136 27.136h605.696c14.848 0 26.624-12.288 27.136-27.136V155.47733333c0-14.848-12.288-27.136-27.136-27.136H208.896c-14.848 0-26.624 12.288-27.136 27.136z m-44.544 0c0-39.936 32.768-72.192 72.192-72.192h605.696c39.424 0 72.192 32.256 72.192 72.192v713.216c0 39.424-32.768 72.192-72.192 72.192H208.896c-39.936 0-72.192-32.256-72.192-72.192l0.512-713.216z m463.872 356.352h178.688v40.96h-178.688v-40.96z m0-178.688h178.688v40.96h-178.688v-40.96z m-321.024 357.376h500.224v50.176H280.064v-50.176z m212.992-324.608c10.24 0 18.944 8.192 18.944 17.92v131.072c0 9.728-8.192 17.92-18.944 17.92h-194.56c-10.24 0-18.432-7.68-18.944-17.92V383.82933333c0-9.728 8.192-17.92 18.944-17.92h21.504v-36.864c0-39.936 33.792-67.072 75.776-67.072s75.776 26.624 75.776 66.56v36.864l21.504 0.512zM406.528 452.43733333c7.68-3.584 12.8-11.264 12.8-19.968-0.512-12.8-10.752-22.528-23.552-22.528-12.8 0-23.552 10.24-23.552 22.528 0 8.704 5.12 15.872 12.8 19.968v28.672c0 1.536 1.024 2.56 2.56 2.56h15.872c1.536 0 2.56-1.024 2.56-2.56l0.512-28.672z m36.352-86.016v-39.936c0-20.992-20.992-38.4-46.592-38.4s-46.592 17.408-46.592 38.4v39.936h93.184z" fill="#515151" p-id="36231"></path></svg>